<?xml version="1.0" encoding="UTF-8" standalone="no"?>
<!DOCTYPE svg PUBLIC "-//W3C//DTD SVG 1.1//EN"
 "http://www.w3.org/Graphics/SVG/1.1/DTD/svg11.dtd">
<!-- Generated by graphviz version 2.43.0 (0)
 -->
<!-- Title: %3 Pages: 1 -->
<svg width="725pt" height="291pt"
 viewBox="0.00 0.00 725.00 291.00" xmlns="http://www.w3.org/2000/svg" xmlns:xlink="http://www.w3.org/1999/xlink">
<g id="graph0" class="graph" transform="scale(1 1) rotate(0) translate(4 287)">
<title>%3</title>
<polygon fill="white" stroke="transparent" points="-4,4 -4,-287 721,-287 721,4 -4,4"/>
<!-- small changes -->
<g id="node1" class="node">
<title>small changes</title>
<text text-anchor="middle" x="58" y="-261.3" font-family="Times-Roman" font-size="14.00">small changes</text>
</g>
<!-- master -->
<g id="node5" class="node">
<title>master</title>
<ellipse fill="none" stroke="black" cx="136" cy="-192" rx="42.49" ry="18"/>
<text text-anchor="middle" x="136" y="-188.3" font-family="Times-Roman" font-size="14.00">master</text>
</g>
<!-- small changes&#45;&gt;master -->
<g id="edge1" class="edge">
<title>small changes&#45;&gt;master</title>
<path fill="none" stroke="black" d="M76.88,-246.81C87.19,-237.43 100.07,-225.71 111.18,-215.6"/>
<polygon fill="black" stroke="black" points="113.85,-217.9 118.89,-208.58 109.14,-212.72 113.85,-217.9"/>
</g>
<!-- mass&#45;rebuilds and other large changes -->
<g id="node2" class="node">
<title>mass&#45;rebuilds and other large changes</title>
<text text-anchor="middle" x="573" y="-101.3" font-family="Times-Roman" font-size="14.00">mass&#45;rebuilds and other large changes</text>
</g>
<!-- staging -->
<g id="node6" class="node">
<title>staging</title>
<ellipse fill="none" stroke="black" cx="430" cy="-18" rx="44.39" ry="18"/>
<text text-anchor="middle" x="430" y="-14.3" font-family="Times-Roman" font-size="14.00">staging</text>
</g>
<!-- mass&#45;rebuilds and other large changes&#45;&gt;staging -->
<g id="edge2" class="edge">
<title>mass&#45;rebuilds and other large changes&#45;&gt;staging</title>
<path fill="none" stroke="black" d="M572.33,-86.55C571.01,-75.81 567.58,-62.51 559,-54 539.29,-34.45 509.84,-25.53 484.05,-21.57"/>
<polygon fill="black" stroke="black" points="484.37,-18.08 474,-20.24 483.46,-25.02 484.37,-18.08"/>
</g>
<!-- critical security fixes -->
<g id="node3" class="node">
<title>critical security fixes</title>
<text text-anchor="middle" x="214" y="-261.3" font-family="Times-Roman" font-size="14.00">critical security fixes</text>
</g>
<!-- critical security fixes&#45;&gt;master -->
<g id="edge3" class="edge">
<title>critical security fixes&#45;&gt;master</title>
<path fill="none" stroke="black" d="M195.12,-246.81C184.81,-237.43 171.93,-225.71 160.82,-215.6"/>
<polygon fill="black" stroke="black" points="162.86,-212.72 153.11,-208.58 158.15,-217.9 162.86,-212.72"/>
</g>
<!-- broken staging&#45;next fixes -->
<g id="node4" class="node">
<title>broken staging&#45;next fixes</title>
<text text-anchor="middle" x="403" y="-188.3" font-family="Times-Roman" font-size="14.00">broken staging&#45;next fixes</text>
</g>
<!-- staging&#45;next -->
<g id="node7" class="node">
<title>staging&#45;next</title>
<ellipse fill="none" stroke="black" cx="266" cy="-105" rx="67.69" ry="18"/>
<text text-anchor="middle" x="266" y="-101.3" font-family="Times-Roman" font-size="14.00">staging&#45;next</text>
</g>
<!-- broken staging&#45;next fixes&#45;&gt;staging&#45;next -->
<g id="edge4" class="edge">
<title>broken staging&#45;next fixes&#45;&gt;staging&#45;next</title>
<path fill="none" stroke="black" d="M399.02,-173.98C395.66,-163.13 389.78,-149.56 380,-141 367.1,-129.72 350.63,-122.07 334.25,-116.89"/>
<polygon fill="black" stroke="black" points="335.21,-113.53 324.63,-114.12 333.27,-120.25 335.21,-113.53"/>
</g>
<!-- master&#45;&gt;staging&#45;next -->
<g id="edge7" class="edge">
<title>master&#45;&gt;staging&#45;next</title>
<path fill="none" stroke="#5f5ee8" d="M95.3,-186.91C53.74,-181.16 -1.57,-168.19 22,-141 43.24,-116.49 124.86,-108.74 187.91,-106.49"/>
<polygon fill="#5f5ee8" stroke="#5f5ee8" points="188.37,-109.97 198.26,-106.16 188.15,-102.98 188.37,-109.97"/>
<text text-anchor="middle" x="131" y="-144.8" font-family="Times-Roman" font-size="14.00" fill="#5f5ee8">every six hours (GitHub Action)</text>
</g>
<!-- staging&#45;&gt;staging&#45;next -->
<g id="edge6" class="edge">
<title>staging&#45;&gt;staging&#45;next</title>
<path fill="none" stroke="#e85eb0" d="M426.54,-36.19C423.47,-47.11 417.87,-60.7 408,-69 389.38,-84.65 364.8,-93.49 341.34,-98.42"/>
<polygon fill="#e85eb0" stroke="#e85eb0" points="340.55,-95.01 331.38,-100.31 341.85,-101.89 340.55,-95.01"/>
<text text-anchor="middle" x="482" y="-57.8" font-family="Times-Roman" font-size="14.00" fill="#e85eb0">stabilization starts</text>
</g>
<!-- staging&#45;next&#45;&gt;master -->
<g id="edge5" class="edge">
<title>staging&#45;next&#45;&gt;master</title>
<path fill="none" stroke="#e85eb0" d="M262.2,-123.44C259.01,-134.18 253.43,-147.48 244,-156 228.05,-170.41 206.09,-178.9 186.13,-183.89"/>
<polygon fill="#e85eb0" stroke="#e85eb0" points="185.2,-180.51 176.22,-186.13 186.75,-187.34 185.2,-180.51"/>
<text text-anchor="middle" x="315" y="-144.8" font-family="Times-Roman" font-size="14.00" fill="#e85eb0">stabilization ends</text>
</g>
<!-- staging&#45;next&#45;&gt;staging -->
<g id="edge8" class="edge">
<title>staging&#45;next&#45;&gt;staging</title>
<path fill="none" stroke="#5f5ee8" d="M219.02,-92.06C194.22,-83.51 171.62,-70.58 186,-54 210,-26.32 311.04,-20.01 375.34,-18.86"/>
<polygon fill="#5f5ee8" stroke="#5f5ee8" points="375.76,-22.36 385.71,-18.72 375.66,-15.36 375.76,-22.36"/>
<text text-anchor="middle" x="295" y="-57.8" font-family="Times-Roman" font-size="14.00" fill="#5f5ee8">every six hours (GitHub Action)</text>
</g>
</g>
</svg>
