<?xml version="1.0" encoding="UTF-8" standalone="no"?>
<!DOCTYPE svg PUBLIC "-//W3C//DTD SVG 1.1//EN"
 "http://www.w3.org/Graphics/SVG/1.1/DTD/svg11.dtd">
<!-- Generated by graphviz version 7.1.0 (0)
 -->
<!-- Pages: 1 -->
<svg width="725pt" height="291pt"
 viewBox="0.00 0.00 725.00 291.00" xmlns="http://www.w3.org/2000/svg" xmlns:xlink="http://www.w3.org/1999/xlink">
<g id="graph0" class="graph" transform="scale(1 1) rotate(0) translate(4 287)">
<polygon fill="white" stroke="none" points="-4,4 -4,-287 721,-287 721,4 -4,4"/>
<!-- small changes -->
<g id="node1" class="node">
<title>small changes</title>
<text text-anchor="middle" x="58" y="-261.3" font-family="Times,serif" font-size="14.00">small changes</text>
</g>
<!-- master -->
<g id="node5" class="node">
<title>master</title>
<ellipse fill="none" stroke="black" cx="136" cy="-192" rx="42.49" ry="18"/>
<text text-anchor="middle" x="136" y="-188.3" font-family="Times,serif" font-size="14.00">master</text>
</g>
<!-- small changes&#45;&gt;master -->
<g id="edge1" class="edge">
<title>small changes&#45;&gt;master</title>
<path fill="none" stroke="black" d="M76.48,-247.17C86.58,-237.98 99.24,-226.46 110.28,-216.41"/>
<polygon fill="black" stroke="black" points="112.56,-219.07 117.6,-209.75 107.85,-213.89 112.56,-219.07"/>
</g>
<!-- mass&#45;rebuilds and other large changes -->
<g id="node2" class="node">
<title>mass&#45;rebuilds and other large changes</title>
<text text-anchor="middle" x="573" y="-101.3" font-family="Times,serif" font-size="14.00">mass&#45;rebuilds and other large changes</text>
</g>
<!-- staging -->
<g id="node6" class="node">
<title>staging</title>
<ellipse fill="none" stroke="black" cx="430" cy="-18" rx="44.39" ry="18"/>
<text text-anchor="middle" x="430" y="-14.3" font-family="Times,serif" font-size="14.00">staging</text>
</g>
<!-- mass&#45;rebuilds and other large changes&#45;&gt;staging -->
<g id="edge2" class="edge">
<title>mass&#45;rebuilds and other large changes&#45;&gt;staging</title>
<path fill="none" stroke="black" d="M572.39,-87.03C571.11,-76.21 567.7,-62.63 559,-54 539.71,-34.87 511.09,-25.91 485.7,-21.83"/>
<polygon fill="black" stroke="black" points="486.19,-18.37 475.81,-20.48 485.24,-25.3 486.19,-18.37"/>
</g>
<!-- critical security fixes -->
<g id="node3" class="node">
<title>critical security fixes</title>
<text text-anchor="middle" x="214" y="-261.3" font-family="Times,serif" font-size="14.00">critical security fixes</text>
</g>
<!-- critical security fixes&#45;&gt;master -->
<g id="edge3" class="edge">
<title>critical security fixes&#45;&gt;master</title>
<path fill="none" stroke="black" d="M195.52,-247.17C185.42,-237.98 172.76,-226.46 161.72,-216.41"/>
<polygon fill="black" stroke="black" points="164.15,-213.89 154.4,-209.75 159.44,-219.07 164.15,-213.89"/>
</g>
<!-- broken staging&#45;next fixes -->
<g id="node4" class="node">
<title>broken staging&#45;next fixes</title>
<text text-anchor="middle" x="403" y="-188.3" font-family="Times,serif" font-size="14.00">broken staging&#45;next fixes</text>
</g>
<!-- staging&#45;next -->
<g id="node7" class="node">
<title>staging&#45;next</title>
<ellipse fill="none" stroke="black" cx="266" cy="-105" rx="67.69" ry="18"/>
<text text-anchor="middle" x="266" y="-101.3" font-family="Times,serif" font-size="14.00">staging&#45;next</text>
</g>
<!-- broken staging&#45;next fixes&#45;&gt;staging&#45;next -->
<g id="edge4" class="edge">
<title>broken staging&#45;next fixes&#45;&gt;staging&#45;next</title>
<path fill="none" stroke="black" d="M399.17,-174.46C395.83,-163.53 389.92,-149.68 380,-141 367.53,-130.09 351.71,-122.58 335.87,-117.41"/>
<polygon fill="black" stroke="black" points="336.96,-114.09 326.38,-114.62 334.99,-120.8 336.96,-114.09"/>
</g>
<!-- master&#45;&gt;staging&#45;next -->
<g id="edge7" class="edge">
<title>master&#45;&gt;staging&#45;next</title>
<path fill="none" stroke="#5f5ee8" d="M94.92,-186.86C53.41,-181.08 -1.5,-168.11 22,-141 43.12,-116.63 123.93,-108.83 186.84,-106.53"/>
<polygon fill="#5f5ee8" stroke="#5f5ee8" points="186.56,-110.04 196.44,-106.22 186.34,-103.04 186.56,-110.04"/>
<text text-anchor="middle" x="131" y="-144.8" font-family="Times,serif" font-size="14.00" fill="#5f5ee8">every six hours (GitHub Action)</text>
</g>
<!-- staging&#45;&gt;staging&#45;next -->
<g id="edge6" class="edge">
<title>staging&#45;&gt;staging&#45;next</title>
<path fill="none" stroke="#e85eb0" d="M426.54,-36.19C423.47,-47.11 417.87,-60.7 408,-69 389.79,-84.3 365.9,-93.09 342.92,-98.09"/>
<polygon fill="#e85eb0" stroke="#e85eb0" points="342.38,-94.63 333.22,-99.96 343.7,-101.5 342.38,-94.63"/>
<text text-anchor="middle" x="482" y="-57.8" font-family="Times,serif" font-size="14.00" fill="#e85eb0">stabilization starts</text>
</g>
<!-- staging&#45;next&#45;&gt;master -->
<g id="edge5" class="edge">
<title>staging&#45;next&#45;&gt;master</title>
<path fill="none" stroke="#e85eb0" d="M262.2,-123.44C259.01,-134.18 253.43,-147.48 244,-156 228.4,-170.1 207.05,-178.52 187.46,-183.55"/>
<polygon fill="#e85eb0" stroke="#e85eb0" points="186.92,-180.09 177.96,-185.74 188.49,-186.91 186.92,-180.09"/>
<text text-anchor="middle" x="315" y="-144.8" font-family="Times,serif" font-size="14.00" fill="#e85eb0">stabilization ends</text>
</g>
<!-- staging&#45;next&#45;&gt;staging -->
<g id="edge8" class="edge">
<title>staging&#45;next&#45;&gt;staging</title>
<path fill="none" stroke="#5f5ee8" d="M218.46,-91.86C193.88,-83.31 171.73,-70.46 186,-54 209.83,-26.51 309.65,-20.09 374,-18.89"/>
<polygon fill="#5f5ee8" stroke="#5f5ee8" points="373.73,-22.39 383.67,-18.75 373.62,-15.39 373.73,-22.39"/>
<text text-anchor="middle" x="295" y="-57.8" font-family="Times,serif" font-size="14.00" fill="#5f5ee8">every six hours (GitHub Action)</text>
</g>
</g>
</svg>
