<?xml version="1.0" encoding="UTF-8" standalone="no"?>
<!DOCTYPE svg PUBLIC "-//W3C//DTD SVG 1.1//EN"
 "http://www.w3.org/Graphics/SVG/1.1/DTD/svg11.dtd">
<!-- Generated by graphviz version 2.49.3 (0)
 -->
<!-- Pages: 1 -->
<svg width="741pt" height="291pt"
 viewBox="0.00 0.00 741.00 291.00" xmlns="http://www.w3.org/2000/svg" xmlns:xlink="http://www.w3.org/1999/xlink">
<g id="graph0" class="graph" transform="scale(1 1) rotate(0) translate(4 287)">
<polygon fill="white" stroke="transparent" points="-4,4 -4,-287 737,-287 737,4 -4,4"/>
<!-- small changes -->
<g id="node1" class="node">
<title>small changes</title>
<text text-anchor="middle" x="59.5" y="-261.3" font-family="Times,serif" font-size="14.00">small changes</text>
</g>
<!-- master -->
<g id="node5" class="node">
<title>master</title>
<ellipse fill="none" stroke="black" cx="138.5" cy="-192" rx="44.39" ry="18"/>
<text text-anchor="middle" x="138.5" y="-188.3" font-family="Times,serif" font-size="14.00">master</text>
</g>
<!-- small changes&#45;&gt;master -->
<g id="edge1" class="edge">
<title>small changes&#45;&gt;master</title>
<path fill="none" stroke="black" d="M78.62,-246.81C89.16,-237.34 102.36,-225.48 113.69,-215.3"/>
<polygon fill="black" stroke="black" points="116.07,-217.86 121.17,-208.58 111.39,-212.66 116.07,-217.86"/>
</g>
<!-- mass&#45;rebuilds and other large changes -->
<g id="node2" class="node">
<title>mass&#45;rebuilds and other large changes</title>
<text text-anchor="middle" x="584.5" y="-101.3" font-family="Times,serif" font-size="14.00">mass&#45;rebuilds and other large changes</text>
</g>
<!-- staging -->
<g id="node6" class="node">
<title>staging</title>
<ellipse fill="none" stroke="black" cx="438.5" cy="-18" rx="44.69" ry="18"/>
<text text-anchor="middle" x="438.5" y="-14.3" font-family="Times,serif" font-size="14.00">staging</text>
</g>
<!-- mass&#45;rebuilds and other large changes&#45;&gt;staging -->
<g id="edge2" class="edge">
<title>mass&#45;rebuilds and other large changes&#45;&gt;staging</title>
<path fill="none" stroke="black" d="M583.85,-86.54C582.53,-75.78 579.1,-62.48 570.5,-54 550.14,-33.92 519.67,-24.99 493.14,-21.17"/>
<polygon fill="black" stroke="black" points="493.54,-17.69 483.19,-19.94 492.68,-24.64 493.54,-17.69"/>
</g>
<!-- critical security fixes -->
<g id="node3" class="node">
<title>critical security fixes</title>
<text text-anchor="middle" x="217.5" y="-261.3" font-family="Times,serif" font-size="14.00">critical security fixes</text>
</g>
<!-- critical security fixes&#45;&gt;master -->
<g id="edge3" class="edge">
<title>critical security fixes&#45;&gt;master</title>
<path fill="none" stroke="black" d="M198.38,-246.81C187.84,-237.34 174.64,-225.48 163.31,-215.3"/>
<polygon fill="black" stroke="black" points="165.61,-212.66 155.83,-208.58 160.93,-217.86 165.61,-212.66"/>
</g>
<!-- broken staging&#45;next fixes -->
<g id="node4" class="node">
<title>broken staging&#45;next fixes</title>
<text text-anchor="middle" x="411.5" y="-188.3" font-family="Times,serif" font-size="14.00">broken staging&#45;next fixes</text>
</g>
<!-- staging&#45;next -->
<g id="node7" class="node">
<title>staging&#45;next</title>
<ellipse fill="none" stroke="black" cx="271.5" cy="-105" rx="68.79" ry="18"/>
<text text-anchor="middle" x="271.5" y="-101.3" font-family="Times,serif" font-size="14.00">staging&#45;next</text>
</g>
<!-- broken staging&#45;next fixes&#45;&gt;staging&#45;next -->
<g id="edge4" class="edge">
<title>broken staging&#45;next fixes&#45;&gt;staging&#45;next</title>
<path fill="none" stroke="black" d="M407.54,-173.96C404.19,-163.1 398.31,-149.52 388.5,-141 375.25,-129.49 358.34,-121.77 341.52,-116.58"/>
<polygon fill="black" stroke="black" points="342.23,-113.15 331.66,-113.82 340.34,-119.89 342.23,-113.15"/>
</g>
<!-- master&#45;&gt;staging&#45;next -->
<g id="edge7" class="edge">
<title>master&#45;&gt;staging&#45;next</title>
<path fill="none" stroke="#5f5ee8" d="M95.95,-186.89C53.81,-181.19 -1.24,-168.31 22.5,-141 44.28,-115.94 128.09,-108.31 192.52,-106.23"/>
<polygon fill="#5f5ee8" stroke="#5f5ee8" points="192.79,-109.73 202.69,-105.95 192.59,-102.73 192.79,-109.73"/>
<text text-anchor="middle" x="134" y="-144.8" font-family="Times,serif" font-size="14.00" fill="#5f5ee8">every six hours (GitHub Action)</text>
</g>
<!-- staging&#45;&gt;staging&#45;next -->
<g id="edge6" class="edge">
<title>staging&#45;&gt;staging&#45;next</title>
<path fill="none" stroke="#e85eb0" d="M435.05,-36.2C431.98,-47.13 426.39,-60.72 416.5,-69 397.55,-84.85 372.6,-93.74 348.74,-98.67"/>
<polygon fill="#e85eb0" stroke="#e85eb0" points="347.8,-95.28 338.61,-100.55 349.08,-102.17 347.8,-95.28"/>
<text text-anchor="middle" x="492" y="-57.8" font-family="Times,serif" font-size="14.00" fill="#e85eb0">stabilization starts</text>
</g>
<!-- staging&#45;next&#45;&gt;master -->
<g id="edge5" class="edge">
<title>staging&#45;next&#45;&gt;master</title>
<path fill="none" stroke="#e85eb0" d="M267.86,-122.98C264.71,-133.82 259.1,-147.39 249.5,-156 233.21,-170.6 210.84,-179.12 190.45,-184.08"/>
<polygon fill="#e85eb0" stroke="#e85eb0" points="189.65,-180.67 180.64,-186.24 191.15,-187.51 189.65,-180.67"/>
<text text-anchor="middle" x="322" y="-144.8" font-family="Times,serif" font-size="14.00" fill="#e85eb0">stabilization ends</text>
</g>
<!-- staging&#45;next&#45;&gt;staging -->
<g id="edge8" class="edge">
<title>staging&#45;next&#45;&gt;staging</title>
<path fill="none" stroke="#5f5ee8" d="M223.11,-92.15C197.82,-83.68 174.9,-70.8 189.5,-54 214.1,-25.7 317.83,-19.62 383.4,-18.68"/>
<polygon fill="#5f5ee8" stroke="#5f5ee8" points="383.62,-22.18 393.58,-18.57 383.54,-15.18 383.62,-22.18"/>
<text text-anchor="middle" x="301" y="-57.8" font-family="Times,serif" font-size="14.00" fill="#5f5ee8">every six hours (GitHub Action)</text>
</g>
</g>
</svg>
